<svg width="700" height="700" viewBox="0 0 700 700" fill="none" xmlns="http://www.w3.org/2000/svg">
<rect width="700" height="700" rx="50" fill="#141B34"/>
<path d="M495.674 599.085V533.302H429.896C417.981 533.302 408.322 523.643 408.322 511.728C408.323 499.813 417.981 490.153 429.896 490.153H495.674V424.375C495.674 412.46 505.334 402.802 517.248 402.801C529.163 402.801 538.822 412.46 538.822 424.375V490.153H604.606C616.52 490.154 626.179 499.814 626.18 511.728C626.18 523.642 616.52 533.301 604.606 533.302H538.822V599.085C538.822 610.999 529.163 620.659 517.248 620.659C505.335 620.658 495.675 610.999 495.674 599.085Z" fill="white"/>
<path d="M108.724 449.193V286.812C108.724 252.093 108.68 223.883 111.659 201.705C114.721 178.909 121.328 159.277 136.966 143.625C159.626 120.944 191.083 116.945 229.583 115.79C241.492 115.433 251.435 124.8 251.792 136.71C252.148 148.618 242.785 158.561 230.877 158.918C191.719 160.093 176.871 164.737 167.493 174.122C161.201 180.42 156.841 189.431 154.421 207.45C151.917 226.088 151.872 250.874 151.872 286.812V449.193C151.872 485.132 151.917 509.921 154.421 528.559C156.841 546.577 161.201 555.584 167.493 561.882C173.782 568.177 182.773 572.538 200.766 574.959C219.383 577.465 244.142 577.508 280.048 577.508H355.022C366.936 577.508 376.596 587.168 376.597 599.082C376.597 610.996 366.937 620.655 355.022 620.656H280.048C245.362 620.656 217.174 620.704 195.011 617.721C172.226 614.655 152.606 608.035 136.966 592.379C121.328 576.727 114.721 557.096 111.659 534.3C108.68 512.121 108.724 483.913 108.724 449.193ZM533.014 349.502V286.812C533.014 250.874 532.97 226.088 530.466 207.45C528.046 189.431 523.691 180.42 517.399 174.122C508.022 164.736 493.174 160.093 454.015 158.918C442.106 158.561 432.739 148.618 433.095 136.71C433.452 124.8 443.399 115.433 455.309 115.79C493.806 116.945 525.262 120.945 547.921 143.625C563.559 159.277 570.17 178.908 573.233 201.705C576.212 223.883 576.162 252.093 576.162 286.812V349.502C576.162 361.416 566.503 371.076 554.588 371.076C542.675 371.075 533.015 361.415 533.014 349.502Z" fill="white"/>
<path d="M433.183 143.595C433.183 131.388 423.285 121.491 411.078 121.491H273.81C261.603 121.491 251.706 131.388 251.706 143.595C251.707 155.802 261.604 165.695 273.81 165.695H411.078C423.285 165.695 433.182 155.802 433.183 143.595ZM476.331 143.595C476.33 179.632 447.115 208.843 411.078 208.843H273.81C237.774 208.843 208.558 179.632 208.558 143.595C208.558 107.558 237.773 78.3425 273.81 78.3425H411.078C447.115 78.3425 476.331 107.558 476.331 143.595Z" fill="white"/>
<path d="M263.5 482.79C254.82 482.79 248.207 480.517 243.66 475.97C239.113 471.423 236.84 464.707 236.84 455.82V286.87C236.84 277.777 239.113 270.853 243.66 266.1C248.207 261.14 254.2 258.66 261.64 258.66C268.253 258.66 273.42 259.9 277.14 262.38C280.86 264.86 284.993 268.993 289.54 274.78L387.81 397.54H379.13V285.32C379.13 276.64 381.3 270.027 385.64 265.48C390.187 260.933 396.8 258.66 405.48 258.66C414.16 258.66 420.67 260.933 425.01 265.48C429.557 270.027 431.83 276.64 431.83 285.32V457.06C431.83 464.913 429.763 471.217 425.63 475.97C421.497 480.517 415.917 482.79 408.89 482.79C401.863 482.79 396.283 481.55 392.15 479.07C388.223 476.383 383.987 472.25 379.44 466.67L281.17 343.6H289.85V455.82C289.85 464.707 287.577 471.423 283.03 475.97C278.69 480.517 272.18 482.79 263.5 482.79Z" fill="white"/>
</svg>
